<svg width="35" height="41" viewBox="0 0 35 41" fill="none" xmlns="http://www.w3.org/2000/svg">
<path d="M33.1667 29.3691V16.6667C33.1667 9.75273 33.1667 6.29577 31.0187 4.14788C28.871 2 25.4139 2 18.5 2H16.6667C9.75273 2 6.29577 2 4.14788 4.14788C2 6.29577 2 9.75273 2 16.6667V34.0833" stroke="#212529" stroke-width="3.5" stroke-linecap="round"/>
<path d="M33.1667 29.5H6.58333C4.05203 29.5 2 31.5521 2 34.0833C2 36.6146 4.05203 38.6667 6.58333 38.6667H33.1667" stroke="#212529" stroke-width="3.5" stroke-linecap="round"/>
<path d="M33.1667 38.6667C30.6354 38.6667 28.5834 36.6146 28.5834 34.0833C28.5834 31.5521 30.6354 29.5 33.1667 29.5" stroke="#212529" stroke-width="3.5" stroke-linecap="round"/>
<path d="M23.0834 11.167H12.0834" stroke="#212529" stroke-width="3.5" stroke-linecap="round" stroke-linejoin="round"/>
<path d="M17.5834 18.5H12.0834" stroke="#212529" stroke-width="3.5" stroke-linecap="round" stroke-linejoin="round"/>
</svg>
