<svg width="44" height="44" viewBox="0 0 44 44" fill="none" xmlns="http://www.w3.org/2000/svg">
<path d="M19.0454 19.376L16.1287 31.6269C16.0478 31.9668 16.0074 32.1367 15.9783 32.3041C15.797 33.3478 15.921 34.4216 16.3354 35.3966C16.4019 35.5529 16.48 35.7091 16.6362 36.0215C16.7392 36.2276 16.7907 36.3306 16.8139 36.41C16.9659 36.9322 16.6329 37.471 16.0981 37.5683C16.0166 37.5832 15.9021 37.5832 15.6732 37.5832C13.5808 37.5832 10.1269 37.5832 8.30138 37.5832C6.16808 37.5832 5.10143 37.5832 4.55816 36.883C4.01489 36.1827 4.27359 35.1414 4.79099 33.0585L7.27219 23.0707C7.7384 21.1939 6.32795 19.376 4.40568 19.376C3.99771 19.376 3.66699 19.043 3.66699 18.6326V13.9138C3.66699 9.39473 4.60417 8.45159 9.09463 8.45159H33.3078C34.4463 8.45159 35.3048 8.18296 36.2329 7.56032C37.3167 6.83311 38.6523 5.51098 39.6353 7.34947C40.6226 9.19602 40.6765 16.9456 39.0564 18.5761C38.2616 19.376 36.9823 19.376 34.4237 19.376H19.0454ZM19.0454 19.376H16.3315" stroke="black" stroke-width="3.5" stroke-linecap="round" stroke-linejoin="round"/>
<path d="M16.5003 26.5833H18.1079C19.8509 26.5833 20.7225 26.5833 21.4862 26.4187C23.6771 25.9466 25.5319 24.4985 26.5213 22.4875C26.8662 21.7864 27.0775 20.9411 27.5003 19.25" stroke="black" stroke-width="3.5"/>
<path d="M3.66699 13.75H7.38474C9.58991 13.75 10.6925 13.75 11.5785 13.2024C12.4646 12.6548 12.9577 11.6686 13.9439 9.69622L14.667 8.25" stroke="black" stroke-width="3.5"/>
<path d="M40.3337 13.75H34.8337" stroke="black" stroke-width="3.5" stroke-linecap="round"/>
</svg>
