<svg width="44" height="44" viewBox="0 0 44 44" fill="none" xmlns="http://www.w3.org/2000/svg">
<path d="M9.16634 29.3332L18.333 23.8332M25.6663 20.1665L34.833 14.6665M21.9997 9.1665V18.3332M21.9997 25.6665V34.8332M9.16634 14.6665L18.333 20.1665M25.6663 23.8332L34.833 29.3332" stroke="black" stroke-width="3.5" stroke-linejoin="round"/>
<path d="M37.583 16.4999V26.5832M24.7497 37.5832L34.833 32.0832M8.24968 32.0832L19.2497 37.5832M6.41634 27.4998V16.4999M8.24968 11.9165L19.2497 6.4165M35.7497 11.9165L24.7497 6.4165" stroke="black" stroke-width="3.5" stroke-linejoin="round"/>
<path d="M21.9997 9.1665C23.5185 9.1665 24.7497 7.93529 24.7497 6.4165C24.7497 4.89772 23.5185 3.6665 21.9997 3.6665C20.4809 3.6665 19.2497 4.89772 19.2497 6.4165C19.2497 7.93529 20.4809 9.1665 21.9997 9.1665Z" stroke="black" stroke-width="3.5" stroke-linejoin="round"/>
<path d="M21.9997 40.3335C23.5185 40.3335 24.7497 39.1023 24.7497 37.5835C24.7497 36.0647 23.5185 34.8335 21.9997 34.8335C20.4809 34.8335 19.2497 36.0647 19.2497 37.5835C19.2497 39.1023 20.4809 40.3335 21.9997 40.3335Z" stroke="black" stroke-width="3.5" stroke-linejoin="round"/>
<path d="M6.41634 16.5C7.93513 16.5 9.16634 15.2688 9.16634 13.75C9.16634 12.2312 7.93513 11 6.41634 11C4.89756 11 3.66634 12.2312 3.66634 13.75C3.66634 15.2688 4.89756 16.5 6.41634 16.5Z" stroke="black" stroke-width="3.5" stroke-linejoin="round"/>
<path d="M37.583 16.5C39.1018 16.5 40.333 15.2688 40.333 13.75C40.333 12.2312 39.1018 11 37.583 11C36.0642 11 34.833 12.2312 34.833 13.75C34.833 15.2688 36.0642 16.5 37.583 16.5Z" stroke="black" stroke-width="3.5" stroke-linejoin="round"/>
<path d="M37.583 33C39.1018 33 40.333 31.7688 40.333 30.25C40.333 28.7312 39.1018 27.5 37.583 27.5C36.0642 27.5 34.833 28.7312 34.833 30.25C34.833 31.7688 36.0642 33 37.583 33Z" stroke="black" stroke-width="3.5" stroke-linejoin="round"/>
<path d="M6.41634 33C7.93513 33 9.16634 31.7688 9.16634 30.25C9.16634 28.7312 7.93513 27.5 6.41634 27.5C4.89756 27.5 3.66634 28.7312 3.66634 30.25C3.66634 31.7688 4.89756 33 6.41634 33Z" stroke="black" stroke-width="3.5" stroke-linejoin="round"/>
<path d="M21.9997 17.875L25.6663 19.9375V24.0625L21.9997 26.125L18.333 24.0625V19.9375L21.9997 17.875Z" stroke="black" stroke-width="3.5" stroke-linejoin="round"/>
</svg>
