<svg width="44" height="44" viewBox="0 0 44 44" fill="none" xmlns="http://www.w3.org/2000/svg">
<path d="M34.1294 36.6665H35.0281C37.136 36.6665 38.8128 35.706 40.3183 34.3631C44.1428 30.9513 35.1524 27.4998 32.0832 27.4998M28.4165 9.29258C28.8329 9.21001 29.2652 9.1665 29.7086 9.1665C33.0451 9.1665 35.7498 11.6289 35.7498 14.6665C35.7498 17.7041 33.0451 20.1665 29.7086 20.1665C29.2652 20.1665 28.8329 20.1231 28.4165 20.0404" stroke="black" stroke-width="3.5" stroke-linecap="round"/>
<path d="M8.21531 29.5372C6.05387 30.6955 0.386661 33.0607 3.83836 36.0202C5.52449 37.466 7.40241 38.5 9.7634 38.5H23.2358C25.5968 38.5 27.4746 37.466 29.1608 36.0202C32.6126 33.0607 26.9454 30.6955 24.7839 29.5372C19.7152 26.8209 13.2839 26.8209 8.21531 29.5372Z" stroke="black" stroke-width="3.5"/>
<path d="M23.8332 13.7498C23.8332 17.7999 20.5499 21.0832 16.4998 21.0832C12.4497 21.0832 9.1665 17.7999 9.1665 13.7498C9.1665 9.69975 12.4497 6.4165 16.4998 6.4165C20.5499 6.4165 23.8332 9.69975 23.8332 13.7498Z" stroke="black" stroke-width="3.5"/>
</svg>
